<?xml version="1.0" encoding="UTF-8"?>
<svg xmlns="http://www.w3.org/2000/svg" xmlns:xlink="http://www.w3.org/1999/xlink" width="20px" height="13px" viewBox="0 0 19 13" version="1.1">
<g id="surface1">
<rect x="0" y="0" width="19" height="13" style="fill:rgb(100%,100%,100%);fill-opacity:1;stroke:none;"/>
<path style=" stroke:none;fill-rule:nonzero;fill:rgb(0%,0%,0%);fill-opacity:1;" d="M 2.914062 3.945312 L 4.667969 1.242188 L 5.109375 1.542969 L 3.351562 4.246094 Z M 3.570312 4.398438 L 5.328125 1.691406 L 5.765625 1.992188 L 4.011719 4.695312 Z M 4.230469 4.847656 L 5.988281 2.144531 L 6.425781 2.445312 L 4.667969 5.148438 Z M 4.230469 4.847656 "/>
<path style=" stroke:none;fill-rule:nonzero;fill:rgb(0%,0%,0%);fill-opacity:1;" d="M 12.574219 10.554688 L 14.332031 7.851562 L 14.769531 8.152344 L 13.011719 10.855469 Z M 13.234375 11.007812 L 14.988281 8.304688 L 15.429688 8.601562 L 13.671875 11.308594 Z M 13.890625 11.457031 L 15.648438 8.753906 L 16.085938 9.054688 L 14.332031 11.757812 Z M 13.890625 11.457031 "/>
<path style="fill-rule:nonzero;fill:rgb(0%,0%,0%);fill-opacity:1;stroke-width:1;stroke-linecap:butt;stroke-linejoin:miter;stroke:rgb(100%,100%,100%);stroke-opacity:1;stroke-miterlimit:4;" d="M 0.00126323 17.006923 L 0.00757939 27.001001 " transform="matrix(0.146379,-0.225347,0.219569,0.150231,9.5,6.5)"/>
<path style=" stroke:none;fill-rule:nonzero;fill:rgb(80.392157%,18.039216%,22.745098%);fill-opacity:1;" d="M 6.863281 4.695312 C 7.835938 3.203125 9.800781 2.800781 11.257812 3.796875 C 12.710938 4.792969 13.105469 6.808594 12.136719 8.304688 Z M 6.863281 4.695312 "/>
<path style=" stroke:none;fill-rule:nonzero;fill:rgb(0%,27.843137%,62.745098%);fill-opacity:1;" d="M 6.863281 4.695312 C 5.894531 6.191406 6.289062 8.207031 7.742188 9.203125 C 9.199219 10.199219 11.164062 9.796875 12.136719 8.304688 C 12.621094 7.554688 12.421875 6.546875 11.695312 6.050781 C 10.96875 5.550781 9.984375 5.753906 9.5 6.5 Z M 6.863281 4.695312 "/>
<path style=" stroke:none;fill-rule:nonzero;fill:rgb(80.392157%,18.039216%,22.745098%);fill-opacity:1;" d="M 9.0625 4.246094 C 9.789062 4.746094 9.984375 5.753906 9.5 6.5 C 9.015625 7.246094 8.03125 7.449219 7.304688 6.949219 C 6.578125 6.453125 6.378906 5.445312 6.863281 4.695312 C 7.351562 3.949219 8.332031 3.75 9.0625 4.246094 Z M 9.0625 4.246094 "/>
<path style=" stroke:none;fill-rule:nonzero;fill:rgb(0%,0%,0%);fill-opacity:1;" d="M 4.667969 11.757812 L 2.914062 9.054688 L 3.351562 8.753906 L 5.109375 11.457031 Z M 5.328125 11.308594 L 3.570312 8.601562 L 4.011719 8.304688 L 5.765625 11.007812 Z M 5.988281 10.855469 L 4.230469 8.152344 L 4.667969 7.851562 L 6.425781 10.554688 Z M 5.988281 10.855469 "/>
<path style=" stroke:none;fill-rule:nonzero;fill:rgb(0%,0%,0%);fill-opacity:1;" d="M 14.332031 5.148438 L 12.574219 2.445312 L 13.011719 2.144531 L 14.769531 4.847656 Z M 14.988281 4.695312 L 13.234375 1.992188 L 13.671875 1.691406 L 15.429688 4.398438 Z M 15.648438 4.246094 L 13.890625 1.542969 L 14.332031 1.242188 L 16.085938 3.945312 Z M 15.648438 4.246094 "/>
<path style="fill-rule:nonzero;fill:rgb(0%,0%,0%);fill-opacity:1;stroke-width:1;stroke-linecap:butt;stroke-linejoin:miter;stroke:rgb(100%,100%,100%);stroke-opacity:1;stroke-miterlimit:4;" d="M -0.00189486 -23.502579 L 0.00252646 -20.493028 M -0.00126323 17.006923 L -0.00252646 20.493028 M 0.00189486 23.502579 L -0.00568454 26.504128 " transform="matrix(-0.146379,-0.225347,0.219569,-0.150231,9.5,6.5)"/>
</g>
</svg>
