<svg width="58" height="32" viewBox="0 0 58 32" fill="none" xmlns="http://www.w3.org/2000/svg">
<rect x="0.5" y="0.5" width="57" height="31" rx="3.5" fill="url(#paint0_linear_42_11569)"/>
<path d="M19.175 16.1592H10.3234V17.126H14.1369V20.4453H15.3185V17.126H19.175V16.1592ZM10.7853 14.5693L11.2365 15.5039C12.8747 15.2676 14.153 14.5103 14.7492 13.4629C15.34 14.5103 16.6291 15.2676 18.2834 15.5039L18.7131 14.5693C16.7902 14.3276 15.5226 13.3018 15.4421 12.2383H18.3586V11.293H11.1398V12.2383H14.0563C13.9704 13.3018 12.6921 14.3276 10.7853 14.5693ZM28.0433 18.2861H24.1546V16.041H22.973V18.2861H19.1703V19.2529H28.0433V18.2861ZM19.4281 15.2891L19.9437 16.2773C21.5819 15.9712 22.9139 15.0205 23.5531 13.7529C24.1976 15.0259 25.5457 15.9658 27.1839 16.2773L27.6996 15.2891C25.6532 14.9614 24.1869 13.5112 24.1869 12.0449V11.3359H22.9193V12.0449C22.9139 13.5059 21.4583 14.9614 19.4281 15.2891ZM38.0993 10.7559H36.9069V12.4316H34.9518V11.3896H33.7702V12.958H31.6003V11.3896H30.4079V16.3418H34.9518V15.4824H36.9069V17.9209H38.0993V10.7559ZM31.6003 15.3965V13.8818H33.7702V15.3965H31.6003ZM31.6969 20.2627H38.3141V19.2959H32.9108V17.2119H31.6969V20.2627ZM34.9518 14.5156V13.3984H36.9069V14.5156H34.9518ZM46.9461 10.7559H45.7537V12.3994H43.804C43.8577 12.0933 43.8846 11.771 43.8846 11.4326H39.4266V12.3994H42.5794C42.3968 13.8442 41.1829 14.999 38.911 15.6113L39.3944 16.5566C41.5052 15.9658 42.9232 14.8862 43.5355 13.3447H45.7537V14.3867H43.4442V15.3535H45.7537V16.4277H46.9461V10.7559ZM40.4363 18.4688C40.4363 19.6611 41.7415 20.4077 43.7342 20.4023C45.7 20.4077 47.0106 19.6611 47.0106 18.4688C47.0106 17.2764 45.7 16.5405 43.7342 16.5352C41.7415 16.5405 40.4363 17.2764 40.4363 18.4688ZM41.6287 18.4688C41.6287 17.8188 42.429 17.4697 43.7342 17.4697C45.0179 17.4697 45.8128 17.8188 45.8182 18.4688C45.8128 19.1079 45.0179 19.457 43.7342 19.457C42.429 19.457 41.6287 19.1079 41.6287 18.4688Z" fill="#10141A"/>
<rect x="0.5" y="0.5" width="57" height="31" rx="3.5" stroke="#DE9408"/>
<defs>
<linearGradient id="paint0_linear_42_11569" x1="29" y1="9.00709e-08" x2="30.6634" y2="31.9222" gradientUnits="userSpaceOnUse">
<stop stop-color="white"/>
<stop offset="0.5" stop-color="#FED15F"/>
<stop offset="1" stop-color="#FEBE30"/>
</linearGradient>
</defs>
</svg>
