<svg width="39" height="32" viewBox="0 0 39 32" fill="none" xmlns="http://www.w3.org/2000/svg">
<rect x="0.5" y="0.5" width="38" height="31" rx="3.5" fill="url(#paint0_linear_42_11568)"/>
<path d="M19.0243 10.7451H17.8857V20.4561H19.0243V10.7451ZM10.5487 17.5557L11.247 18.4043C13.0678 17.3301 14.0776 15.9443 14.5395 14.333H15.8769V15.7725H14.3622V16.75H15.8769V19.9941H17.0155V10.9814H15.8769V13.3555H14.7436C14.8134 12.8936 14.8456 12.4155 14.8456 11.9268H11.0644V12.8936H13.664C13.4814 14.8486 12.5575 16.3687 10.5487 17.5557ZM28.3438 15.5146H24.4981V14.1611H23.3165V15.5146H19.4923V16.4814H28.3438V15.5146ZM19.9757 13.7852L20.4054 14.7197C22.0059 14.478 23.2735 13.7529 23.8966 12.7378C24.5142 13.7583 25.7872 14.478 27.377 14.7197L27.8389 13.7852C25.814 13.5327 24.5089 12.4585 24.5089 11.2715V10.9062H23.295V11.2715C23.295 12.4316 21.9791 13.5327 19.9757 13.7852ZM20.4698 18.1895H26.0665V20.4561H27.2589V17.2549H20.4698V18.1895Z" fill="#10141A"/>
<rect x="0.5" y="0.5" width="38" height="31" rx="3.5" stroke="#DE9408"/>
<defs>
<linearGradient id="paint0_linear_42_11568" x1="19.5" y1="9.00709e-08" x2="21.9657" y2="31.8178" gradientUnits="userSpaceOnUse">
<stop stop-color="white"/>
<stop offset="0.5" stop-color="#FED15F"/>
<stop offset="1" stop-color="#FEBE30"/>
</linearGradient>
</defs>
</svg>
