<svg width="161" height="32" viewBox="0 0 161 32" fill="none" xmlns="http://www.w3.org/2000/svg">
<rect x="1" y="0.5" width="159" height="31" rx="3.5" fill="url(#paint0_linear_42_11368)"/>
<path d="M76.0951 18.3398H72.2279V16.7607H75.2679V15.7832H69.4671V14.5264H75.0423V11.4111H68.2533V12.3779H73.8607V13.5811H68.2747V16.7607H71.0462V18.3398H67.222V19.3281H76.0951V18.3398ZM83.7925 11.6904H77.0034V12.6572H82.6001V12.7861C82.6001 14.0483 82.6001 15.4556 82.2241 17.3623L83.438 17.4697C83.7925 15.4233 83.7925 14.0859 83.7925 12.7861V11.6904ZM76.0688 19.124H84.9204V18.1465H76.0688V19.124ZM93.0045 10.7559H91.8014V17.7705H93.0045V10.7559ZM85.0876 13.8174C85.0876 15.2515 86.2316 16.2559 87.7086 16.2559C89.1857 16.2559 90.3244 15.2515 90.319 13.8174C90.3244 12.4048 89.1857 11.395 87.7086 11.3896C86.2316 11.395 85.0876 12.4048 85.0876 13.8174ZM86.2585 13.8174C86.2531 12.9795 86.8761 12.4316 87.7086 12.4316C88.5197 12.4316 89.1481 12.9795 89.1481 13.8174C89.1481 14.6768 88.5197 15.2139 87.7086 15.2139C86.8761 15.2139 86.2531 14.6768 86.2585 13.8174ZM86.5807 20.2627H93.2731V19.2959H87.7838V17.0615H86.5807V20.2627Z" fill="#10141A"/>
<rect x="1" y="0.5" width="159" height="31" rx="3.5" stroke="#DE9408"/>
<defs>
<linearGradient id="paint0_linear_42_11368" x1="80.5" y1="9.00709e-08" x2="81.1044" y2="31.9975" gradientUnits="userSpaceOnUse">
<stop stop-color="white"/>
<stop offset="0.5" stop-color="#FED15F"/>
<stop offset="1" stop-color="#FEBE30"/>
</linearGradient>
</defs>
</svg>
