<svg width="18" height="19" viewBox="0 0 18 19" fill="none" xmlns="http://www.w3.org/2000/svg">
<path d="M9 14.9C7.125 14.9 5.4675 13.94 4.5 12.5C4.5225 11 7.5 10.175 9 10.175C10.5 10.175 13.4775 11 13.5 12.5C13.0042 13.2383 12.3344 13.8434 11.5497 14.2619C10.7649 14.6804 9.88935 14.8995 9 14.9ZM9 4.25C9.59674 4.25 10.169 4.48705 10.591 4.90901C11.0129 5.33097 11.25 5.90326 11.25 6.5C11.25 7.09674 11.0129 7.66903 10.591 8.09099C10.169 8.51295 9.59674 8.75 9 8.75C8.40326 8.75 7.83097 8.51295 7.40901 8.09099C6.98705 7.66903 6.75 7.09674 6.75 6.5C6.75 5.90326 6.98705 5.33097 7.40901 4.90901C7.83097 4.48705 8.40326 4.25 9 4.25ZM9 2C8.01509 2 7.03982 2.19399 6.12987 2.5709C5.21993 2.94781 4.39314 3.50026 3.6967 4.1967C2.29018 5.60322 1.5 7.51088 1.5 9.5C1.5 11.4891 2.29018 13.3968 3.6967 14.8033C4.39314 15.4997 5.21993 16.0522 6.12987 16.4291C7.03982 16.806 8.01509 17 9 17C10.9891 17 12.8968 16.2098 14.3033 14.8033C15.7098 13.3968 16.5 11.4891 16.5 9.5C16.5 5.3525 13.125 2 9 2Z" fill="white"/>
</svg>
