<svg width="100" height="40" fill="none" xmlns="http://www.w3.org/2000/svg"><path fill-rule="evenodd" clip-rule="evenodd" d="M60.835 29.326c-5.23 3.81-12.809 5.898-19.339 5.898-9.148 0-17.389-3.358-23.62-9.075-.49-.453-.054-.998.535-.635 6.727 3.902 15.045 6.262 23.638 6.262 5.796 0 12.166-1.18 18.03-3.72.88-.364 1.62.634.756 1.27Z" fill="#F90"/><path fill-rule="evenodd" clip-rule="evenodd" d="M63.012 26.785c-.67-.817-4.421-.363-6.108-.182-.51.09-.59-.363-.131-.726 2.993-2.087 7.9-1.452 8.469-.817.573.726-.151 5.718-2.957 8.077-.432.363-.84.09-.65-.363.633-1.543 2.046-5.081 1.377-5.99Z" fill="#F90"/><path fill-rule="evenodd" clip-rule="evenodd" d="M57.02 10.995V8.907c.004-.272.235-.544.52-.544h9.155c.29 0 .529.272.529.544v1.815c-.004.273-.252.636-.69 1.27L61.792 18.8c1.762-.09 3.623.181 5.223 1.089.362.181.46.544.486.817v2.178c0 .272-.328.635-.673.453-2.819-1.452-6.556-1.633-9.673 0-.319.182-.654-.181-.654-.453v-2.088c0-.363.007-.907.342-1.36l5.495-7.987h-4.785c-.295 0-.53-.181-.533-.453v-.001Zm18.11.09c-2.053 0-2.184 2.814-2.184 4.538 0 1.724-.026 5.535 2.16 5.535 2.16 0 2.26-3.085 2.26-4.9 0-1.18-.053-2.632-.414-3.811-.312-.999-.938-1.362-1.822-1.362Zm-.024-2.904c4.136 0 6.37 3.54 6.37 8.077 0 4.356-2.469 7.804-6.37 7.804-4.055 0-6.268-3.539-6.268-7.986 0-4.446 2.237-7.895 6.268-7.895ZM52.534 23.79c-.185.09-.52.09-.66 0-.951-.726-1.598-1.815-1.598-1.815-1.53 1.543-2.611 1.996-4.59 1.996-2.345 0-4.17-1.451-4.17-4.355 0-2.27 1.226-3.812 2.97-4.538 1.51-.726 3.624-.816 5.238-.998 0 0 .133-1.724-.339-2.36-.364-.544-.99-.725-1.563-.725-1.035 0-2.033.544-2.23 1.633-.057.272-.285.545-.527.545l-2.668-.273c-.204-.09-.482-.272-.415-.635C42.605 8.998 45.562 8 48.214 8c1.356 0 3.127.363 4.195 1.361 1.356 1.27 1.226 2.995 1.226 4.81v4.356c0 1.36.542 1.905 1.051 2.631.178.273.218.545-.01.726-.569.454-2.142 1.906-2.142 1.906Zm-2.81-6.897c0 1.09.027 1.997-.52 2.995-.441.817-1.145 1.27-1.928 1.27-1.069 0-1.694-.816-1.694-1.996 0-2.45 2.129-2.813 4.142-2.813v.544ZM16.017 23.79c-.184.09-.523.09-.656 0-.951-.726-1.598-1.815-1.598-1.815-1.53 1.543-2.612 1.996-4.59 1.996C6.824 23.971 5 22.52 5 19.616c0-2.27 1.226-3.812 2.97-4.538 1.51-.726 3.623-.816 5.237-.998 0 0 .134-1.724-.338-2.36-.368-.544-.991-.725-1.564-.725-1.034 0-2.032.544-2.23 1.633-.057.272-.284.545-.525.545L5.88 12.9c-.204-.09-.482-.272-.415-.635C6.088 8.998 9.045 8 11.697 8c1.356 0 3.128.363 4.196 1.361 1.356 1.27 1.226 2.995 1.226 4.81v4.356c0 1.36.542 1.905 1.051 2.631.177.273.218.545-.01.726-.57.454-2.143 1.906-2.143 1.906Zm-2.81-6.897c0 1.09.027 1.997-.522 2.995-.442.817-1.145 1.27-1.929 1.27-1.068 0-1.694-.816-1.694-1.996 0-2.45 2.13-2.813 4.142-2.813v.544h.003Zm10.953-1.27c0-1.634-.076-3.902 1.926-3.902 1.976 0 1.715 2.36 1.715 3.902l.003 7.623c0 .272.22.544.499.544h2.782c.299 0 .536-.272.536-.544v-7.623c0-.817-.026-1.997.262-2.723.287-.726.987-1.18 1.663-1.18.808 0 1.43.273 1.639 1.271.13.545.076 2.087.076 2.632v7.623c0 .272.22.544.499.544h2.783c.298 0 .535-.272.535-.544l.004-9.075c0-1.543.18-3.267-.703-4.447-.779-1.089-2.053-1.633-3.225-1.633-1.638 0-3.171.907-3.848 2.722-.78-1.815-1.871-2.722-3.612-2.722-1.715 0-2.991.907-3.668 2.722h-.053V8.998c0-.363-.235-.544-.52-.544h-2.597c-.288 0-.52.181-.52.544v14.248c0 .272.235.544.52.544h2.782c.288 0 .52-.272.52-.544l.002-7.623Zm63.222 7.623c0 .272-.235.544-.52.544H84.08c-.288 0-.52-.272-.52-.544V8.998c0-.363.235-.544.52-.544h2.572c.3 0 .519.272.519.363v2.178h.054c.78-1.906 1.871-2.815 3.797-2.815 1.249 0 2.47.454 3.25 1.634C95 10.995 95 12.9 95 14.262v9.074c-.03.272-.258.454-.533.454h-2.792a.49.49 0 0 1-.496-.454l.004-8.711c0-2.904-1.11-2.904-1.748-2.904-.744 0-1.343.544-1.605 1.089-.388.907-.452 1.724-.452 2.722l.004 7.714Z" fill="#fff"/></svg>