<svg width="12" height="12" viewBox="0 0 12 12" fill="none" xmlns="http://www.w3.org/2000/svg">
<path d="M6 6C6.275 6 6.5105 5.902 6.7065 5.706C6.90217 5.51033 7 5.275 7 5C7 4.725 6.90217 4.4895 6.7065 4.2935C6.5105 4.09783 6.275 4 6 4C5.725 4 5.48967 4.09783 5.294 4.2935C5.098 4.4895 5 4.725 5 5C5 5.275 5.098 5.51033 5.294 5.706C5.48967 5.902 5.725 6 6 6ZM6 11C4.65833 9.85833 3.65633 8.79783 2.994 7.8185C2.33133 6.8395 2 5.93333 2 5.1C2 3.85 2.40217 2.85417 3.2065 2.1125C4.0105 1.37083 4.94167 1 6 1C7.05833 1 7.9895 1.37083 8.7935 2.1125C9.59783 2.85417 10 3.85 10 5.1C10 5.93333 9.66883 6.8395 9.0065 7.8185C8.34383 8.79783 7.34167 9.85833 6 11Z" fill="#D5D5D5"/>
</svg>
