<svg width="40" height="40" viewBox="0 0 40 40" fill="none" xmlns="http://www.w3.org/2000/svg">
<path d="M0 0H36C38.2091 0 40 1.79086 40 4V36C40 38.2091 38.2091 40 36 40H0V0Z" fill="#FCB057"/>
<path d="M29.75 28.6895L24.086 23.0255C25.4471 21.3915 26.1259 19.2957 25.981 17.174C25.8362 15.0523 24.879 13.0681 23.3085 11.6342C21.7379 10.2003 19.6751 9.42703 17.549 9.47534C15.4229 9.52365 13.3973 10.3898 11.8935 11.8935C10.3898 13.3973 9.52365 15.4229 9.47534 17.549C9.42703 19.6751 10.2003 21.7379 11.6342 23.3085C13.0681 24.879 15.0523 25.8362 17.174 25.981C19.2957 26.1259 21.3915 25.4471 23.0255 24.086L28.6895 29.75L29.75 28.6895ZM11 17.75C11 16.415 11.3959 15.11 12.1376 13.9999C12.8793 12.8899 13.9335 12.0247 15.1669 11.5138C16.4003 11.0029 17.7575 10.8693 19.0669 11.1297C20.3763 11.3902 21.579 12.0331 22.523 12.9771C23.467 13.9211 24.1099 15.1238 24.3703 16.4332C24.6308 17.7425 24.4971 19.0997 23.9862 20.3331C23.4753 21.5665 22.6102 22.6207 21.5001 23.3624C20.3901 24.1041 19.085 24.5 17.75 24.5C15.9604 24.498 14.2447 23.7862 12.9792 22.5208C11.7138 21.2554 11.002 19.5396 11 17.75Z" fill="#10141A"/>
</svg>
