<svg width="56" height="56" viewBox="0 0 56 56" fill="none" xmlns="http://www.w3.org/2000/svg">
<path opacity="0.4" d="M28 4.66669C23.3851 4.66669 18.8738 6.03516 15.0367 8.59906C11.1995 11.163 8.20883 14.8071 6.44278 19.0707C4.67674 23.3343 4.21466 28.0259 5.11498 32.5521C6.0153 37.0784 8.23759 41.236 11.5008 44.4992C14.764 47.7624 18.9216 49.9847 23.4479 50.885C27.9741 51.7853 32.6656 51.3233 36.9292 49.5572C41.1929 47.7912 44.837 44.8005 47.4009 40.9633C49.9648 37.1262 51.3333 32.6149 51.3333 28C51.3333 24.9358 50.7298 21.9017 49.5572 19.0707C48.3845 16.2398 46.6658 13.6676 44.4991 11.5009C42.3324 9.33416 39.7602 7.61544 36.9292 6.44283C34.0983 5.27022 31.0641 4.66669 28 4.66669ZM28 46.6667C24.3081 46.6667 20.699 45.5719 17.6293 43.5208C14.5596 41.4697 12.1671 38.5543 10.7542 35.1434C9.34138 31.7326 8.97172 27.9793 9.69198 24.3583C10.4122 20.7374 12.1901 17.4113 14.8006 14.8007C17.4112 12.1901 20.7373 10.4123 24.3583 9.69203C27.9793 8.97177 31.7325 9.34143 35.1434 10.7543C38.5543 12.1671 41.4696 14.5597 43.5207 17.6294C45.5718 20.6991 46.6666 24.3081 46.6666 28C46.6666 32.9507 44.7 37.6987 41.1993 41.1993C37.6986 44.7 32.9507 46.6667 28 46.6667Z" fill="#10141A"/>
<path d="M46.6667 28H51.3333C51.3333 24.9358 50.7298 21.9017 49.5572 19.0707C48.3846 16.2398 46.6659 13.6676 44.4992 11.5009C42.3325 9.33416 39.7602 7.61544 36.9293 6.44283C34.0984 5.27022 31.0642 4.66669 28 4.66669V9.33335C32.9507 9.33335 37.6986 11.3 41.1993 14.8007C44.7 18.3014 46.6667 23.0493 46.6667 28Z" fill="#10141A"/>
</svg>
